# xmcd CD database file
#
# Track frame offsets:
#	150
#	21451
#	40261
#	59722
#	69573
#	86458
#	101335
#	123920
#	128835
#	151201
#	170970
#	195054
#
# Disc length: 2738 seconds
#
# Revision: 0
# Processed by: cddbd v1.5.1PL2 Copyright (c) Steve Scherf et al.
# Submitted via: CDex 1.51
#
DISCID=9e0ab00c
DTITLE=Motosota - trans.metro.politik
DYEAR=2005
DGENRE=Jazz
TTITLE0=the starlab
TTITLE1=crystal lattice
TTITLE2=machete-benz
TTITLE3=ichi
TTITLE4=comma
TTITLE5=visceral lei
TTITLE6=gun is in the glovebox
TTITLE7=diffuse the night sky
TTITLE8=in passing
TTITLE9=vincent got mad
TTITLE10=i am a czar
TTITLE11=strange town, fimiliar faces
EXTD=YEAR: 2005
EXTT0=
EXTT1=
EXTT2=
EXTT3=
EXTT4=
EXTT5=
EXTT6=
EXTT7=
EXTT8=
EXTT9=
EXTT10=
EXTT11=
PLAYORDER=
